<svg width="1653" height="993" xmlns="http://www.w3.org/2000/svg" xmlns:xlink="http://www.w3.org/1999/xlink" overflow="hidden"><defs><clipPath id="clip0"><rect x="942" y="75" width="1653" height="993"/></clipPath><clipPath id="clip1"><rect x="943" y="75" width="1650" height="990"/></clipPath><clipPath id="clip2"><rect x="943" y="75" width="1650" height="990"/></clipPath><clipPath id="clip3"><rect x="1053" y="126" width="1493" height="731"/></clipPath><clipPath id="clip4"><rect x="1053" y="126" width="1493" height="731"/></clipPath><clipPath id="clip5"><rect x="943" y="75" width="1650" height="990"/></clipPath><clipPath id="clip6"><rect x="943" y="75" width="1650" height="990"/></clipPath><clipPath id="clip7"><rect x="943" y="75" width="1650" height="990"/></clipPath><clipPath id="clip8"><rect x="943" y="75" width="1650" height="990"/></clipPath><clipPath id="clip9"><rect x="943" y="75" width="1650" height="990"/></clipPath><clipPath id="clip10"><rect x="943" y="75" width="1650" height="990"/></clipPath><clipPath id="clip11"><rect x="943" y="75" width="1650" height="990"/></clipPath><clipPath id="clip12"><rect x="943" y="75" width="1650" height="990"/></clipPath><clipPath id="clip13"><rect x="943" y="75" width="1650" height="990"/></clipPath><clipPath id="clip14"><rect x="943" y="75" width="1650" height="990"/></clipPath><clipPath id="clip15"><rect x="943" y="75" width="1650" height="990"/></clipPath><clipPath id="clip16"><rect x="943" y="75" width="1650" height="990"/></clipPath><clipPath id="clip17"><rect x="943" y="75" width="1650" height="990"/></clipPath><clipPath id="clip18"><rect x="943" y="75" width="1650" height="990"/></clipPath><clipPath id="clip19"><rect x="943" y="75" width="1650" height="990"/></clipPath><clipPath id="clip20"><rect x="943" y="75" width="1650" height="990"/></clipPath><clipPath id="clip21"><rect x="943" y="75" width="1650" height="990"/></clipPath><clipPath id="clip22"><rect x="943" y="75" width="1650" height="990"/></clipPath><clipPath id="clip23"><rect x="943" y="75" width="1650" height="990"/></clipPath></defs><g clip-path="url(#clip0)" transform="translate(-942 -75)"><rect x="943" y="76" width="1650" height="990" fill="#FFFFFF"/><g clip-path="url(#clip1)"><path d="M1053.5 750.525 2542.5 750.525M1053.5 646.521 2542.5 646.521M1053.5 542.518 2542.5 542.518M1053.5 438.515 2542.5 438.515M1053.5 334.511 2542.5 334.511M1053.5 230.508 2542.5 230.508M1053.5 126.5 2542.5 126.5" stroke="#D9D9D9" stroke-width="3.4375" stroke-linejoin="round" stroke-miterlimit="10" fill="none"/></g><g clip-path="url(#clip2)"><path d="M1053.5 854.5 2542.5 854.5" stroke="#D9D9D9" stroke-width="3.4375" stroke-linejoin="round" stroke-miterlimit="10" fill="none" fill-rule="evenodd"/></g><g clip-path="url(#clip3)"><path d="M1160 584 1372.04 438.014 1585.05 480.016 1798.06 459.015 2011.07 417.014 2224.07 397 2436 417.014" stroke="#4472C4" stroke-width="10.3125" stroke-linecap="round" stroke-linejoin="round" stroke-miterlimit="10" fill="none"/></g><g clip-path="url(#clip4)"><path d="M1160 293.01 1372.04 355.012 1585.05 397 1798.06 230 2011.07 251.008 2224.07 355.012 2436 272.009" stroke="#ED7D31" stroke-width="10.3125" stroke-linecap="round" stroke-linejoin="round" stroke-miterlimit="10" fill="none"/></g><g clip-path="url(#clip5)"><text fill="#595959" font-family="Calibri,Calibri_MSFontService,sans-serif" font-weight="400" font-size="41" transform="matrix(1 0 0 1 993.942 866)">0</text></g><g clip-path="url(#clip6)"><text fill="#595959" font-family="Calibri,Calibri_MSFontService,sans-serif" font-weight="400" font-size="41" transform="matrix(1 0 0 1 993.942 762)">5</text></g><g clip-path="url(#clip7)"><text fill="#595959" font-family="Calibri,Calibri_MSFontService,sans-serif" font-weight="400" font-size="41" transform="matrix(1 0 0 1 973.042 658)">10</text></g><g clip-path="url(#clip8)"><text fill="#595959" font-family="Calibri,Calibri_MSFontService,sans-serif" font-weight="400" font-size="41" transform="matrix(1 0 0 1 973.042 554)">15</text></g><g clip-path="url(#clip9)"><text fill="#595959" font-family="Calibri,Calibri_MSFontService,sans-serif" font-weight="400" font-size="41" transform="matrix(1 0 0 1 973.042 450)">20</text></g><g clip-path="url(#clip10)"><text fill="#595959" font-family="Calibri,Calibri_MSFontService,sans-serif" font-weight="400" font-size="41" transform="matrix(1 0 0 1 973.042 346)">25</text></g><g clip-path="url(#clip11)"><text fill="#595959" font-family="Calibri,Calibri_MSFontService,sans-serif" font-weight="400" font-size="41" transform="matrix(1 0 0 1 973.042 242)">30</text></g><g clip-path="url(#clip12)"><text fill="#595959" font-family="Calibri,Calibri_MSFontService,sans-serif" font-weight="400" font-size="41" transform="matrix(1 0 0 1 973.042 138)">35</text></g><g clip-path="url(#clip13)"><text fill="#595959" font-family="Calibri,Calibri_MSFontService,sans-serif" font-weight="400" font-size="41" transform="matrix(1 0 0 1 1138.62 920)">23</text></g><g clip-path="url(#clip14)"><text fill="#595959" font-family="Calibri,Calibri_MSFontService,sans-serif" font-weight="400" font-size="41" transform="matrix(1 0 0 1 1351.44 920)">24</text></g><g clip-path="url(#clip15)"><text fill="#595959" font-family="Calibri,Calibri_MSFontService,sans-serif" font-weight="400" font-size="41" transform="matrix(1 0 0 1 1564.25 920)">25</text></g><g clip-path="url(#clip16)"><text fill="#595959" font-family="Calibri,Calibri_MSFontService,sans-serif" font-weight="400" font-size="41" transform="matrix(1 0 0 1 1777.07 920)">26</text></g><g clip-path="url(#clip17)"><text fill="#595959" font-family="Calibri,Calibri_MSFontService,sans-serif" font-weight="400" font-size="41" transform="matrix(1 0 0 1 1989.89 920)">27</text></g><g clip-path="url(#clip18)"><text fill="#595959" font-family="Calibri,Calibri_MSFontService,sans-serif" font-weight="400" font-size="41" transform="matrix(1 0 0 1 2202.71 920)">28</text></g><g clip-path="url(#clip19)"><text fill="#595959" font-family="Calibri,Calibri_MSFontService,sans-serif" font-weight="400" font-size="41" transform="matrix(1 0 0 1 2415.52 920)">29</text></g><g clip-path="url(#clip20)"><path d="M1577 999 1665 999" stroke="#4472C4" stroke-width="10.3125" stroke-linecap="round" stroke-linejoin="round" stroke-miterlimit="10" fill="none" fill-rule="evenodd"/></g><g clip-path="url(#clip21)"><text fill="#595959" font-family="Yu Gothic,Yu Gothic_MSFontService,sans-serif" font-weight="400" font-size="41" transform="matrix(1 0 0 1 1674.64 1012)">最低</text></g><g clip-path="url(#clip22)"><path d="M1796 999 1884 999" stroke="#ED7D31" stroke-width="10.3125" stroke-linecap="round" stroke-linejoin="round" stroke-miterlimit="10" fill="none" fill-rule="evenodd"/></g><g clip-path="url(#clip23)"><text fill="#595959" font-family="Yu Gothic,Yu Gothic_MSFontService,sans-serif" font-weight="400" font-size="41" transform="matrix(1 0 0 1 1892.8 1012)">最高</text></g><rect x="943.5" y="76.5002" width="1650" height="990" stroke="#D9D9D9" stroke-width="3.4375" stroke-linejoin="round" stroke-miterlimit="10" fill="none"/></g></svg>